<svg xmlns="http://www.w3.org/2000/svg" width="128" height="128" viewBox="0 0 128 128">
 <defs><linearGradient id="bolt" x1="0" y1="0" x2="1" y2="1"><stop stop-color="#fff3ce"/><stop offset=".45" stop-color="#d4c5ff"/><stop offset="1" stop-color="#8861cb"/></linearGradient></defs>
 <path d="M80 15 40 70 60 72 49 116 99 55 76 56Z" fill="#382446" stroke="#211a2a" stroke-width="7" stroke-linejoin="round"/>
 <path d="m77 11-42 56 24 2-13 43 49-62-25 3Z" fill="url(#bolt)" stroke="#241d2c" stroke-width="4" stroke-linejoin="round"/>
 <path d="m72 23-31 40 23 1-8 29" fill="none" stroke="#fff8df" stroke-width="3" stroke-linejoin="round"/>
 <path d="m34 21 3 9 9 3-9 3-3 9-3-9-9-3 9-3Zm67 55 2 7 7 2-7 2-2 7-2-7-7-2 7-2Z" fill="#c2a5ff"/>
 <circle cx="88" cy="101" r="3" fill="#f9dfa2"/>
</svg>
