<svg xmlns="http://www.w3.org/2000/svg" width="128" height="128" viewBox="0 0 128 128">
<defs><linearGradient id="leather" x2=".2" y2="1"><stop stop-color="#be8b57"/><stop offset=".45" stop-color="#875537"/><stop offset="1" stop-color="#49303a"/></linearGradient><linearGradient id="gold" x2=".25" y2="1"><stop stop-color="#ffe4a4"/><stop offset=".5" stop-color="#bc884c"/><stop offset="1" stop-color="#79532f"/></linearGradient><linearGradient id="violet" x2=".6" y2="1"><stop stop-color="#b18aed"/><stop offset=".5" stop-color="#7954b0"/><stop offset="1" stop-color="#493561"/></linearGradient><linearGradient id="bone" x2=".3" y2="1"><stop stop-color="#fff4d5"/><stop offset="1" stop-color="#c9ad81"/></linearGradient></defs>
<path d="M64 8l44 14v41q-3 33-44 56Q23 95 20 63V22z" fill="#342c49" stroke="#d4ad72" stroke-width="5"/><path d="M64 17l34 11v35q-3 27-34 45Q33 90 30 63V28z" fill="url(#violet)" stroke="#59416c" stroke-width="3"/><path d="M39 48q2-23 25-23 25 0 26 23l-4 26-11 16H52L39 74z" fill="url(#bone)" stroke="#35283f" stroke-width="5"/><path d="M33 48q-2-20 13-29 15-9 32-1 15 8 16 28z" fill="url(#violet)" stroke="#342442" stroke-width="5"/><path d="M55 17l-4 29m16-30l5 29M29 47q33-10 68 0l-1 7H30z" fill="#8260ad" stroke="#372647" stroke-width="4"/><ellipse cx="53" cy="66" rx="9" ry="11" fill="#30223e"/><ellipse cx="76" cy="66" rx="9" ry="11" fill="#30223e"/><path d="M62 76l-3 7h8l-3-7z" fill="#644555"/><path d="M49 94l15-7 16 7-16 11z" fill="#76b99e" stroke="#2c4544" stroke-width="3"/><path d="M29 31l4-5m62 50l-5 10" stroke="#f0d391" stroke-width="3"/>
</svg>
